<svg xmlns="http://www.w3.org/2000/svg" width="512" height="512" viewBox="0 0 512 512" version="1.1">
	<path d="M 229.769 22.060 C 190.058 27.527, 143.664 47.563, 111.960 72.940 C 102.413 80.581, 88.912 93.958, 80.265 104.343 C 41.787 150.554, 20.971 218.923, 27.044 279.144 C 34.946 357.502, 81.910 427.358, 149.899 461.884 C 187.668 481.064, 222.206 488.905, 263.762 487.733 C 284.469 487.150, 294.046 485.733, 313.500 480.376 C 359.241 467.780, 399.091 442.973, 428.552 408.754 C 458.527 373.937, 477.295 331.143, 483.701 283 C 487.074 257.657, 483.294 219.888, 474.394 190 C 468.428 169.962, 456.796 143.389, 447.038 127.500 C 419.179 82.141, 366.154 42.819, 313.507 28.476 C 292.297 22.698, 285.961 21.863, 260.500 21.487 C 247.300 21.293, 233.471 21.551, 229.769 22.060 M 228.500 31.525 C 169.884 41.012, 111.620 75.993, 82.121 119.409 C 76.209 128.111, 66.852 144.873, 71.733 138.019 C 79.527 127.073, 88.790 115.173, 94.932 108.214 C 124.378 74.854, 178.455 47.038, 228.534 39.494 C 243.172 37.289, 268.907 37.264, 284.394 39.439 C 338.836 47.085, 391.431 77.095, 425.044 119.691 C 433.074 129.867, 433.817 130.508, 430.616 124.500 C 426.066 115.959, 418.015 105.962, 406.026 93.969 C 376.165 64.094, 335.774 42.280, 294 33.465 C 283.200 31.186, 278.507 30.776, 259.500 30.448 C 243.434 30.171, 235.072 30.461, 228.500 31.525 M 165.250 106.662 C 163.659 107.304, 163.627 111.227, 165.200 112.800 C 167.365 114.965, 170.902 114.238, 171.593 111.487 C 172.617 107.405, 169.426 104.977, 165.250 106.662 M 189.455 127.455 C 187.680 129.229, 187 131, 187 133.844 C 187 139.136, 189.477 141.986, 194.684 142.684 C 198.238 143.161, 199.226 142.865, 201.424 140.667 C 207.130 134.961, 203.363 125, 195.500 125 C 193.021 125, 191.149 125.760, 189.455 127.455 M 243.500 155.060 C 234.254 156.304, 220.029 160.373, 212.193 164.016 C 202.183 168.670, 189.037 177.729, 182.241 184.656 C 176.106 190.909, 175.995 191.119, 176.630 195.268 C 176.987 197.595, 177.452 199.699, 177.665 199.942 C 177.877 200.185, 181.752 196.558, 186.276 191.880 C 191.405 186.577, 197.170 181.818, 201.595 179.235 C 208.279 175.332, 218.915 170.582, 219.548 171.215 C 220.289 171.955, 217.057 174.905, 212.757 177.414 C 205.203 181.822, 198.605 188.387, 195.076 195.008 C 193.279 198.381, 192.090 201.424, 192.436 201.769 C 192.781 202.114, 197.427 198.145, 202.760 192.949 C 208.093 187.752, 211.116 185.062, 209.478 186.970 C 207.840 188.879, 205.644 191.241, 204.597 192.220 C 203.550 193.199, 203.100 194.007, 203.597 194.015 C 204.094 194.024, 203.872 194.428, 203.104 194.914 C 202.183 195.498, 201.982 196.427, 202.513 197.649 C 202.956 198.667, 203.235 199.871, 203.134 200.324 C 203.033 200.778, 203.412 200.864, 203.975 200.515 C 204.539 200.167, 205 200.329, 205 200.876 C 205 201.423, 205.476 203.121, 206.057 204.651 C 206.904 206.878, 207.300 207.140, 208.042 205.966 C 208.747 204.851, 208.973 205.141, 208.985 207.173 C 209.007 210.987, 213.415 215.800, 217.607 216.586 C 219.524 216.946, 220.854 217.479, 220.562 217.771 C 219.543 218.790, 223.523 220.937, 226.500 220.974 C 228.150 220.994, 231.126 221.463, 233.113 222.015 C 236.854 223.054, 245.410 221.824, 258.250 218.400 C 259.488 218.070, 262.525 217.737, 265 217.660 C 268.408 217.554, 270.064 216.911, 271.825 215.010 C 273.104 213.629, 272.360 214.975, 270.171 218 C 264.870 225.327, 263.357 230.493, 265.010 235.622 C 267.143 242.238, 269.943 244.245, 270.070 239.250 C 270.109 237.738, 270.527 235.600, 271 234.500 C 271.724 232.814, 271.870 233.001, 271.930 235.691 C 272.014 239.518, 273.231 240.482, 276.064 238.966 C 279.352 237.206, 281 231.893, 281 223.051 C 281 215.316, 281.087 215.016, 283.526 214.404 C 284.916 214.055, 286.513 212.909, 287.077 211.857 C 287.640 210.805, 288.465 210.170, 288.911 210.445 C 289.357 210.721, 291.200 208.146, 293.006 204.723 C 295.614 199.781, 296.248 197.471, 296.086 193.500 C 295.784 186.073, 295.638 185.106, 294.890 185.568 C 294.516 185.799, 293.960 185.339, 293.656 184.545 C 293.304 183.629, 293.584 183.287, 294.422 183.608 C 295.148 183.887, 296.011 183.414, 296.340 182.557 C 296.736 181.525, 296.358 180.989, 295.219 180.969 C 294.273 180.951, 292.640 179.758, 291.589 178.317 L 289.678 175.697 293.004 177.598 C 294.834 178.644, 300.532 183.491, 305.666 188.368 C 310.799 193.246, 315 196.578, 315 195.773 C 315 193.430, 307.641 182.868, 302.876 178.372 C 300.469 176.101, 296.520 172.839, 294.100 171.122 C 288.926 167.451, 289.169 167.286, 295.656 170.067 C 309.549 176.022, 328.084 191.870, 336.485 204.977 C 340.707 211.564, 341.309 212.119, 342.710 210.719 C 344.110 209.318, 344.047 208.729, 342.061 204.626 C 339.469 199.271, 327.407 185.194, 320.417 179.366 C 309.187 170.003, 290.608 160.306, 277.561 156.998 C 268.116 154.603, 253.206 153.755, 243.500 155.060 M 285 173.430 C 285 173.705, 285.900 174.411, 287 175 C 288.100 175.589, 289 175.845, 289 175.570 C 289 175.295, 288.100 174.589, 287 174 C 285.900 173.411, 285 173.155, 285 173.430 M 166.832 204.250 C 152.228 225.968, 146.707 256.089, 152.432 282.813 C 154.746 293.613, 161.323 310.244, 166.703 318.896 C 177.138 335.681, 195.845 351.265, 214.351 358.590 C 222.543 361.832, 232.461 364.382, 227 361.842 C 225.625 361.202, 220.345 358.758, 215.266 356.411 C 197.185 348.053, 182.076 335.282, 171.602 319.505 C 165.046 309.630, 163.229 306.139, 162.505 302.030 C 162.195 300.268, 160.834 295.008, 159.482 290.342 C 152.484 266.193, 154.468 237.477, 164.499 217.733 C 166.885 213.035, 167.541 210.962, 166.517 211.355 C 165.585 211.713, 165 211.371, 165 210.469 C 165 209.661, 165.407 209, 165.905 209 C 166.772 209, 171.971 200.386, 173.298 196.750 C 174.565 193.280, 172.944 195.160, 166.832 204.250 M 346.070 223.707 C 350.957 238.166, 352.314 247.644, 351.693 263 C 349.982 305.295, 328.260 339.406, 291.809 357.033 C 283.098 361.246, 283.184 362.025, 292.068 359.388 C 303.786 355.912, 314.994 348.865, 326.873 337.506 C 341.182 323.824, 349.552 309.669, 354.666 290.500 C 357.095 281.399, 357.336 278.838, 357.357 262 C 357.377 245.139, 357.149 242.658, 354.779 234 C 350.995 220.172, 348.473 215, 345.517 215 L 343.127 215 346.070 223.707 M 202.070 221.698 C 202.555 223.789, 202.963 227.801, 202.976 230.614 C 203.009 237.735, 204.696 245.906, 206.760 248.941 L 208.500 251.500 209.051 246.500 L 209.603 241.500 211.465 247.750 C 212.490 251.188, 213.660 254, 214.066 254 C 215.180 254, 217 248.124, 217 244.529 C 217 239.012, 214.115 232.592, 208.420 225.434 C 205.385 221.620, 202.516 218.364, 202.045 218.198 C 201.573 218.032, 201.584 219.607, 202.070 221.698 M 306.741 223.562 C 291.949 227.147, 286.075 235.182, 292.589 242.923 C 295.904 246.864, 298.546 246.825, 304.608 242.750 C 310.213 238.982, 314.648 232.320, 315.594 226.250 C 316.361 221.324, 316.191 221.272, 306.741 223.562 M 302.411 232.891 C 298.288 235.405, 295 239.728, 295 242.635 C 295 246.776, 299.910 244.922, 302.717 239.720 C 305.582 234.413, 306.946 231, 306.202 231.004 C 305.816 231.006, 304.110 231.855, 302.411 232.891 M 276.104 258.750 C 270.363 261.036, 268.962 263.195, 271.442 265.936 C 274.785 269.630, 279.470 270.212, 290.278 268.277 C 301.309 266.302, 301.819 265.592, 295.735 260.671 C 290.990 256.833, 282.907 256.042, 276.104 258.750 M 282 264 C 279.864 264.684, 280.082 264.801, 283.500 264.801 C 285.700 264.801, 288.625 264.440, 290 264 C 292.136 263.316, 291.918 263.199, 288.500 263.199 C 286.300 263.199, 283.375 263.560, 282 264 M 178.750 267.600 C 176.137 268.403, 174 269.233, 174 269.444 C 174 270.785, 183.395 276.345, 187.853 277.643 C 192.295 278.936, 193.947 278.995, 197.553 277.985 C 199.944 277.316, 202.707 275.876, 203.695 274.785 C 205.436 272.861, 205.400 272.730, 202.495 270.393 C 196.905 265.896, 187.781 264.823, 178.750 267.600 M 185.627 272.027 C 186.191 272.591, 189.094 273.271, 192.077 273.538 L 197.500 274.024 194 272.588 C 189.810 270.869, 184.085 270.485, 185.627 272.027 M 265.972 282.541 C 259.286 292.259, 253.828 308.019, 252.742 320.750 C 252.324 325.643, 252.445 326, 254.517 326 C 256.448 326, 256.899 325.179, 257.952 319.750 C 259.757 310.446, 264.879 292.360, 267.735 285.207 C 269.117 281.746, 270.010 278.677, 269.720 278.387 C 269.430 278.097, 267.743 279.966, 265.972 282.541 M 212.528 293.671 C 215.498 301.560, 219.434 308.197, 226.216 316.750 C 230.263 321.853, 231.707 323, 234.086 323 C 235.689 323, 237 322.652, 237 322.226 C 237 321.800, 233.341 316.962, 228.870 311.476 C 224.398 305.989, 218.535 298.238, 215.839 294.250 C 213.144 290.262, 210.732 287, 210.478 287 C 210.225 287, 211.147 290.002, 212.528 293.671" stroke="none" fill="black" fill-rule="evenodd"/>
</svg>