<svg xmlns="http://www.w3.org/2000/svg" width="512" height="512" viewBox="0 0 512 512" version="1.1">
	<path d="M 241.500 50.642 C 210.915 54.128, 191.739 59.638, 166.656 72.148 C 109.555 100.626, 70.106 154.920, 58.866 220.500 C 56.235 235.852, 55.247 266.892, 56.949 280.710 C 63.243 331.804, 90.533 384.352, 126.950 415.500 C 155.398 439.833, 191.762 456.143, 228.322 460.968 C 232.625 461.535, 245.506 462, 256.947 462 C 282.503 462, 295.859 460.008, 317 453.042 C 348.466 442.675, 373.912 427.018, 396.438 404.165 C 413.697 386.656, 423.361 372.815, 434.610 349.500 C 441.536 335.144, 446.720 320.911, 450.608 305.578 C 468.280 235.882, 441.867 148.646, 388.981 102.044 C 354.069 71.280, 316.376 54.836, 272 51.009 C 261.030 50.063, 247.959 49.905, 241.500 50.642 M 222.500 69.475 C 179.520 77.423, 137.781 102.846, 111.379 137.157 C 84.172 172.514, 68.479 224.297, 71.837 267.628 C 73.172 284.853, 76.105 300.268, 80.652 313.970 C 84.880 326.707, 92.884 343.785, 95.862 346.419 C 98.658 348.893, 107.192 349.633, 114.024 347.994 C 118.724 346.867, 119.361 346.925, 120.977 348.627 C 121.956 349.657, 123.048 351.747, 123.403 353.271 C 123.964 355.679, 123.390 356.648, 119.018 360.675 C 112.799 366.404, 111.011 371.186, 113.376 375.761 C 116.431 381.669, 127.306 394.157, 136.373 402.170 C 164.539 427.063, 209.459 446.205, 236.504 444.839 C 244.259 444.448, 249.360 441.814, 251.069 437.317 C 251.604 435.910, 252 410.422, 252 377.369 C 252 339.645, 252.356 319.203, 253.035 317.934 C 254.201 315.756, 258.218 315.349, 259.786 317.250 C 260.449 318.054, 261.079 339.659, 261.552 377.798 C 262.238 433.089, 262.412 437.253, 264.117 439.421 C 272.497 450.075, 301.747 445.170, 338.500 426.948 C 356.569 417.990, 369.147 409.230, 381.891 396.730 C 401.477 377.518, 402.993 372.193, 392.136 360.738 L 388.570 356.975 390.040 352.738 C 391.466 348.630, 391.633 348.508, 395.505 348.755 C 410.500 349.711, 413.771 349.512, 416.047 347.500 C 419.035 344.858, 425.089 331.889, 429.534 318.605 C 437.372 295.183, 440.968 267.242, 439.030 244.824 C 433.341 179.001, 404.674 128.457, 354.500 95.784 C 335.061 83.126, 309.946 72.975, 289.504 69.515 C 278.971 67.732, 273.880 68.014, 268.238 70.691 C 261.317 73.975, 261.554 72.186, 261 125.333 C 260.509 172.354, 260.461 173.284, 258.438 174.626 C 256.687 175.788, 256.083 175.781, 254.438 174.579 C 252.579 173.221, 252.480 171.181, 252 124.831 C 251.610 87.177, 251.206 75.984, 250.169 74.165 C 246.970 68.551, 236.810 66.829, 222.500 69.475 M 183.500 167.573 C 179.192 169.813, 176.115 172.921, 173.670 177.500 C 170.698 183.066, 170.724 194.800, 173.721 200.500 C 181.575 215.436, 199.339 218.489, 209.704 206.684 C 216.989 198.387, 216.663 184.112, 208.974 174.784 C 202.846 167.351, 190.595 163.882, 183.500 167.573 M 313 167.307 C 311.075 167.914, 307.167 170.734, 304.316 173.574 C 295.955 181.902, 293.887 193.009, 298.884 202.753 C 306.853 218.293, 327.965 217.585, 336.241 201.500 C 338.754 196.618, 339.657 186.106, 338.069 180.237 C 336.685 175.120, 331.744 169.209, 327.298 167.351 C 323.515 165.770, 317.930 165.753, 313 167.307 M 136.500 168.567 C 127.986 172.979, 123.044 181.034, 123.044 190.500 C 123.044 204.609, 133.664 214.515, 145.113 211.084 C 157.835 207.273, 163.251 191.004, 156.375 177.251 C 151.737 167.974, 144.091 164.633, 136.500 168.567 M 361.379 168.437 C 357.960 169.925, 353.796 174.821, 351.968 179.504 C 350.210 184.006, 350.435 193.896, 352.399 198.500 C 355.450 205.649, 363.491 212, 369.492 212 C 378.440 212, 386.703 203.848, 388.462 193.287 C 391.044 177.778, 374.595 162.685, 361.379 168.437 M 173.500 223.964 C 160.850 224.259, 149.825 224.921, 149 225.436 C 137.947 232.335, 133.975 238.743, 127.572 260 C 125.428 267.115, 124.522 268.777, 122.006 270.203 C 119.367 271.699, 119 272.453, 119 276.377 C 119 286.003, 128.100 290.473, 135.032 284.250 C 137.497 282.037, 138.264 280.329, 138.962 275.500 C 139.439 272.200, 141.039 266.800, 142.517 263.500 C 143.996 260.200, 146.116 255.025, 147.229 252 C 149.342 246.258, 153.421 240, 155.051 240 C 155.573 240, 156 241.105, 156 242.456 C 156 245.860, 150.837 270.468, 144.910 295.315 C 135.798 333.515, 135.887 332.131, 142.314 336.050 C 147.901 339.457, 158.820 338.066, 161.194 333.645 C 161.827 332.465, 165.327 321.600, 168.971 309.500 C 173.645 293.979, 176.024 287.500, 177.048 287.500 C 177.885 287.500, 179.347 289.756, 180.500 292.828 C 190.061 318.301, 196.721 333.516, 199.059 335.230 C 204.567 339.267, 218.862 338.129, 220.634 333.513 C 220.967 332.645, 216.902 318.337, 211.602 301.717 C 198.798 261.571, 194.161 243, 196.940 243 C 197.581 243, 206.295 248.105, 216.303 254.345 C 226.311 260.584, 236.853 266.993, 239.728 268.586 C 243.033 270.416, 245.395 272.540, 246.149 274.359 C 247.579 277.813, 252.441 280.991, 256.300 280.996 C 260.584 281.002, 264.842 278.313, 266.381 274.630 C 267.460 272.048, 269.522 270.355, 275.635 267.032 C 279.961 264.681, 290.279 258.312, 298.565 252.879 C 306.851 247.445, 314.172 243, 314.834 243 C 315.633 243, 315.827 243.925, 315.409 245.750 C 312.193 259.817, 307.944 275.330, 303.294 289.981 C 294.009 319.242, 291.021 329.396, 291.010 331.727 C 290.980 338.307, 309.006 340.071, 314.479 334.023 C 315.841 332.519, 323.313 314.019, 330.920 293.320 C 333.106 287.373, 335.590 284.688, 336.521 287.267 C 336.766 287.945, 339.700 298.175, 343.042 310 C 346.384 321.825, 349.750 332.472, 350.524 333.661 C 352.402 336.549, 358.223 338.348, 363.695 337.731 C 369.057 337.127, 374 332.969, 374 329.063 C 373.999 327.653, 371.948 317.950, 369.440 307.500 C 357.834 259.128, 353.974 240, 355.820 240 C 358.207 240, 362.036 245.470, 364.964 253.063 C 366.750 257.694, 369.225 263.512, 370.463 265.992 C 371.702 268.471, 372.990 272.919, 373.325 275.876 C 374.097 282.676, 376.040 285.641, 380.536 286.882 C 387.485 288.801, 393 284.249, 393 276.596 C 393 273.154, 391.576 270.950, 387.771 268.500 C 386.917 267.950, 385.081 263.450, 383.691 258.500 C 378.305 239.317, 374.845 233.398, 365.335 227.098 L 360.657 224 336.376 224 C 319.382 224, 311.255 224.368, 309.297 225.227 C 304.617 227.280, 289.127 236.802, 277.500 244.774 C 265.105 253.272, 258.530 257, 255.936 257 C 254.964 257, 248.619 253.328, 241.835 248.839 C 216.615 232.154, 200.204 222.672, 197.500 223.224 C 196.950 223.336, 186.150 223.669, 173.500 223.964" stroke="none" fill="black" fill-rule="evenodd"/>
</svg>