<svg xmlns="http://www.w3.org/2000/svg" width="512" height="512" viewBox="0 0 512 512" version="1.1">
	<path d="M 253.353 40.600 C 252.746 43.295, 251.284 49.099, 250.103 53.497 C 248.181 60.652, 248.118 61.613, 249.501 62.624 C 250.858 63.617, 250.811 63.816, 249.108 64.262 C 247.369 64.716, 247.227 65.416, 247.735 71.018 C 248.430 78.678, 246.510 79.002, 244.047 71.641 C 243.176 69.035, 241.965 66.588, 241.357 66.202 C 240.749 65.816, 238.210 61.450, 235.714 56.500 C 232.995 51.106, 230.972 48.101, 230.666 49 C 227.974 56.921, 225.671 64.775, 225.683 66 C 225.691 66.825, 225.203 67.822, 224.599 68.215 C 223.994 68.609, 223.490 71.534, 223.477 74.715 L 223.454 80.500 219.572 80.262 C 215.141 79.990, 213.950 79.267, 215.925 78.047 C 217.888 76.833, 216.519 74.168, 213.550 73.423 C 211.568 72.926, 211.132 72.319, 211.552 70.644 C 211.848 69.465, 211.435 67.606, 210.635 66.513 C 209.184 64.531, 209.176 64.531, 206.957 66.513 L 204.734 68.500 205.482 66 C 205.894 64.625, 206.282 63.275, 206.345 63 C 206.607 61.851, 202.565 56.151, 201.817 56.613 C 201.367 56.891, 200.993 58.329, 200.985 59.809 C 200.951 65.784, 199.490 65.461, 193.131 58.072 C 189.759 54.154, 187.007 51.298, 187.015 51.724 C 187.023 52.151, 187.719 55.424, 188.561 58.998 C 189.403 62.572, 189.844 66.485, 189.540 67.695 C 189.176 69.148, 189.584 70.271, 190.744 71.005 C 191.886 71.728, 192.096 72.289, 191.344 72.610 C 190.708 72.882, 188.800 74.431, 187.103 76.052 C 183.699 79.305, 182 79.787, 182 77.500 C 182 76.675, 182.675 76, 183.500 76 C 185.247 76, 185.496 74.424, 183.904 73.441 C 183.301 73.068, 182.110 73.461, 181.257 74.315 C 179.855 75.716, 178.938 75.281, 171.746 69.806 L 163.785 63.747 164.527 67.123 C 164.934 68.981, 166.025 72.795, 166.950 75.599 C 167.875 78.404, 168.323 81.554, 167.945 82.599 C 167.542 83.715, 168.009 85.988, 169.075 88.104 C 170.282 90.499, 170.557 92.043, 169.895 92.705 C 169.347 93.253, 168.828 94.635, 168.742 95.775 C 168.542 98.437, 167.672 97.942, 157.657 89.471 C 153.049 85.573, 150.033 83.592, 150.347 84.668 C 150.641 85.676, 151.385 88.525, 152.001 91 C 153.100 95.414, 156.019 104.073, 156.700 104.940 C 156.890 105.181, 157.761 104.358, 158.635 103.110 L 160.225 100.841 162.992 103.492 C 164.514 104.950, 166.554 105.998, 167.526 105.822 C 168.497 105.645, 169.465 105.990, 169.676 106.588 C 169.923 107.291, 167.923 107.697, 164.029 107.734 C 160.407 107.768, 158 107.367, 158 106.729 C 158 106.145, 157.739 105.928, 157.419 106.248 C 155.983 107.684, 159.197 111, 162.024 111 C 166.720 111, 174.371 114.378, 181.454 119.579 C 188.417 124.692, 189.309 126, 185.833 126 C 184.642 126, 183.951 126.284, 184.298 126.631 C 185.222 127.555, 183.145 131, 181.665 131 C 180.969 131, 179.889 130.489, 179.264 129.864 C 177.966 128.566, 179.894 126.005, 182.179 125.993 C 184.662 125.981, 177.510 121.992, 169.500 118.921 C 165.100 117.235, 161.050 115.297, 160.500 114.614 C 159.950 113.931, 157.475 112.833, 155 112.173 C 149.591 110.732, 132 108.136, 132 108.780 C 132 109.031, 133.375 110.802, 135.055 112.715 C 137.480 115.478, 138.046 116.946, 137.805 119.847 C 137.520 123.259, 137.302 123.478, 134.500 123.169 C 132.850 122.987, 130.503 122.199, 129.285 121.419 C 125.986 119.305, 123 119.596, 123 122.031 C 123 123.149, 123.675 124.322, 124.500 124.638 C 125.325 124.955, 126 125.561, 126 125.986 C 126 126.410, 122.287 125.688, 117.750 124.382 C 113.212 123.075, 108.375 121.707, 107 121.341 C 105.154 120.850, 106.462 122.543, 112 127.814 L 119.500 134.952 117 136.987 L 114.500 139.022 117 141.261 C 118.505 142.609, 119.380 144.344, 119.198 145.620 C 118.983 147.121, 119.567 147.925, 121.198 148.376 L 123.500 149.013 121 151.080 C 119.320 152.470, 118.910 153.315, 119.750 153.657 C 120.438 153.937, 121 155.254, 121 156.583 C 121 159.370, 122.474 159.762, 123.831 157.337 C 124.656 155.864, 124.840 155.921, 125.448 157.837 C 126.016 159.626, 126.902 160, 130.567 160 C 135.384 160, 135.997 160.788, 133.171 163.345 C 131.121 165.201, 128.434 165.511, 127.500 164 C 126.531 162.432, 125.387 162.818, 124.391 165.050 C 123.513 167.018, 122.989 166.860, 111.238 161.077 C 104.507 157.764, 99 155.400, 99 155.823 C 99 156.246, 101.025 159.876, 103.500 163.891 C 105.975 167.905, 108 171.395, 108 171.647 C 108 171.898, 106.686 172.562, 105.080 173.122 C 101.279 174.447, 100.662 176.300, 103.023 179.302 C 104.074 180.639, 104.680 181.986, 104.370 182.297 C 104.059 182.607, 104.726 183.437, 105.852 184.140 C 107.361 185.082, 107.620 185.753, 106.840 186.692 C 106.044 187.651, 106.448 188.220, 108.473 188.990 C 109.952 189.552, 110.972 190.572, 110.738 191.256 C 110.423 192.180, 107.127 192.423, 97.907 192.200 C 86.310 191.920, 85.631 192.007, 87.500 193.531 C 90.401 195.896, 100.672 201, 102.531 201 C 103.404 201, 103.872 201.398, 103.571 201.885 C 102.777 203.169, 105 209, 106.283 209 C 106.882 209, 108.365 208.066, 109.580 206.925 C 110.795 205.783, 112.044 205.262, 112.356 205.766 C 113.308 207.307, 106.864 212.694, 100 216.097 C 96.047 218.057, 94.088 219.511, 95 219.808 C 98.898 221.077, 107 225.143, 107 225.829 C 107 226.841, 104.821 229, 103.800 229 C 103.360 229, 103 228.100, 103 227 C 103 224.361, 101.364 224.451, 99.909 227.171 C 98.946 228.970, 99.058 229.569, 100.565 230.671 C 101.564 231.402, 102.746 232, 103.191 232 C 103.636 232, 104 232.620, 104 233.378 C 104 235.547, 106.435 237.165, 107.739 235.861 C 108.527 235.073, 109.238 235.566, 110.301 237.635 C 111.753 240.462, 111.712 240.546, 107.243 244 C 104.752 245.925, 101.316 248.761, 99.607 250.302 L 96.500 253.104 101.817 252.449 C 106.712 251.846, 107.179 251.967, 107.704 253.978 C 108.267 256.129, 109.110 256.213, 113.199 254.526 C 114.638 253.932, 114.861 254.390, 114.661 257.521 C 114.531 259.553, 113.727 261.730, 112.875 262.358 C 112.022 262.986, 111.535 264.125, 111.792 264.888 C 112.048 265.651, 111.567 266.663, 110.723 267.135 C 109.878 267.608, 106.853 270.965, 104 274.594 C 98.120 282.076, 98.326 282.133, 110.750 276.448 C 117.740 273.249, 118.036 273.200, 119.035 275.065 C 119.608 276.137, 121.059 276.965, 122.285 276.921 C 123.503 276.878, 123.938 276.615, 123.250 276.338 C 121.239 275.526, 121.692 271.790, 123.750 272.215 C 124.713 272.414, 125.438 273.343, 125.363 274.279 C 125.255 275.615, 125.766 275.846, 127.737 275.351 C 130.024 274.777, 129.713 275.513, 124.247 283.610 C 118.617 291.951, 115 298.157, 115 299.476 C 115 299.792, 116.313 299.372, 117.918 298.542 C 119.523 297.712, 124.310 295.899, 128.556 294.513 C 135.664 292.193, 136.371 292.125, 137.485 293.649 C 138.588 295.158, 138.908 295.092, 141.086 292.914 C 143.188 290.812, 143.518 290.733, 143.812 292.261 C 144.236 294.462, 148 294.580, 148 292.393 C 148 291.297, 147.444 290.980, 146.250 291.395 C 144.837 291.888, 144.883 291.709, 146.488 290.468 C 147.687 289.542, 148.614 289.342, 148.822 289.965 C 149.011 290.534, 150.029 291, 151.083 291 C 153.134 291, 153.546 292.009, 152.123 293.550 C 151.118 294.640, 147 305.548, 147 307.123 C 147 307.699, 149.137 306.615, 151.750 304.715 C 154.363 302.814, 157.900 300.546, 159.611 299.676 C 162.641 298.134, 162.751 298.158, 163.865 300.603 C 165.387 303.943, 167 302.750, 167 298.286 C 167 294.866, 167.089 294.771, 168.829 296.345 C 171.914 299.137, 173.307 298.449, 172.566 294.500 C 171.902 290.960, 173.467 289.449, 174.638 292.500 C 174.955 293.325, 176.116 294, 177.218 294 C 178.959 294, 179.138 293.549, 178.581 290.578 C 178.208 288.593, 178.372 286.888, 178.969 286.519 C 179.536 286.169, 180 286.557, 180 287.382 C 180 289.556, 181.853 290.367, 183.568 288.944 C 185.838 287.060, 186.392 288.550, 184.202 290.649 C 183.140 291.667, 181.710 293.577, 181.024 294.893 C 179.647 297.535, 174 313.878, 174 315.222 C 174 315.687, 177.596 313.619, 181.992 310.626 C 187.393 306.947, 190.635 305.353, 191.992 305.708 C 193.117 306.002, 194 305.742, 194 305.117 C 194 302.754, 195.602 304.170, 197.261 308 C 198.214 310.200, 199.180 312, 199.408 312 C 200.063 312, 204 303.507, 204 302.095 C 204 301.394, 204.960 300.043, 206.133 299.093 C 207.877 297.682, 208.068 296.995, 207.180 295.336 C 206.391 293.861, 206.402 292.998, 207.222 292.178 C 208.060 291.340, 208.059 290.100, 207.218 287.360 C 206.595 285.330, 206.318 283.294, 206.602 282.835 C 206.886 282.376, 209.585 282, 212.600 282 C 217.951 282, 218.365 282.214, 229.922 290.941 C 247.789 304.433, 246.367 300.841, 245.579 330.500 C 244.189 382.757, 240.989 419.608, 236.890 430.565 C 233.415 439.852, 228.422 442.795, 200.500 452.009 C 190.050 455.458, 180.610 458.737, 179.522 459.297 C 177.552 460.310, 177.552 460.317, 179.522 461.087 C 180.610 461.512, 195.961 461.891, 213.636 461.930 L 245.772 462 251.762 466 C 255.057 468.200, 258.006 470, 258.315 470 C 258.625 470, 260.958 468.200, 263.500 466 L 268.122 462 302.644 462 C 329.815 462, 337.079 461.734, 336.755 460.750 C 336.529 460.063, 330.304 457.351, 322.922 454.725 C 288.936 442.633, 283.577 439.889, 280.157 432.825 C 275.302 422.794, 270.080 392.127, 266.055 350 C 264.925 338.175, 263.536 323.667, 262.969 317.760 C 261.706 304.593, 261.982 303.914, 273.393 292.124 C 282.463 282.753, 285.877 280.797, 291.618 281.681 C 298.839 282.792, 301.692 285.986, 299.844 290.889 C 298.806 293.643, 299.664 295.155, 301.026 292.971 C 301.624 292.011, 301.728 292.838, 301.325 295.350 C 300.894 298.032, 301.110 299.450, 302.039 300.024 C 303.138 300.703, 303.142 301.124, 302.063 302.424 C 301.199 303.466, 301.080 304.424, 301.715 305.250 C 302.242 305.938, 303.702 309.313, 304.959 312.750 C 306.216 316.188, 307.354 319, 307.488 319 C 307.622 319, 308.963 315.625, 310.468 311.500 C 311.972 307.375, 313.363 304, 313.558 304 C 313.753 304, 315.845 305.794, 318.207 307.988 C 322.623 312.089, 324.544 312.869, 325.222 310.835 C 325.570 309.790, 331.288 315.276, 336.861 322 C 339.871 325.631, 339.631 322.999, 335.882 311.262 C 332.187 299.694, 329.806 294.732, 325.678 290.002 C 323.141 287.094, 322.910 286.448, 324.311 286.179 C 326.310 285.794, 328.464 287.735, 329.435 290.797 C 329.827 292.029, 330.956 293, 331.998 293 C 333.169 293, 333.980 293.836, 334.180 295.250 C 334.388 296.711, 335.304 297.614, 336.794 297.825 C 338.548 298.074, 338.943 298.603, 338.476 300.075 C 337.898 301.896, 338.691 302.431, 341.517 302.128 C 342.076 302.068, 342.976 303.025, 343.517 304.254 C 344.614 306.749, 346.766 307.469, 348.943 306.070 C 350.111 305.320, 350.163 304.653, 349.215 302.572 C 348.570 301.157, 348.306 300, 348.628 300 C 349.527 300, 356.998 305.875, 361.880 310.421 L 366.261 314.500 365.645 311.198 C 365.306 309.382, 363.426 304.701, 361.466 300.797 C 359.033 295.949, 358.228 293.372, 358.928 292.672 C 359.628 291.972, 360.540 292.179, 361.805 293.324 C 363.931 295.247, 366 295.521, 366 293.878 C 366 293.122, 366.409 293.076, 367.250 293.738 C 368.523 294.739, 385.072 298, 388.881 298 C 390.509 298, 388.919 295.870, 381.738 288.427 C 376.657 283.162, 372.641 278.173, 372.814 277.340 C 373.048 276.213, 372.587 275.996, 371.016 276.495 C 368.089 277.424, 366.055 275.405, 366.139 271.656 C 366.178 269.920, 365.086 265.247, 363.712 261.272 C 361.359 254.466, 361.327 254.105, 363.160 255.086 C 366.132 256.676, 368.992 262.083, 368.996 266.117 C 369 269.265, 369.551 270.097, 373.250 272.532 C 375.587 274.071, 378.103 276.177, 378.840 277.213 C 379.817 278.585, 380.524 278.810, 381.446 278.045 C 383.134 276.644, 390.510 282.448, 393.667 287.663 C 399.058 296.569, 394.040 279.375, 388.366 269.500 C 386.470 266.200, 384.391 262.734, 383.745 261.798 C 383.099 260.862, 382.862 259.804, 383.219 259.448 C 384.473 258.194, 391.074 258.819, 393.523 260.423 C 394.885 261.316, 396 261.832, 396 261.570 C 396 260.276, 393.574 256, 392.839 256 C 392.378 256, 392 255.310, 392 254.468 C 392 253.625, 390.988 252.545, 389.750 252.068 C 387.751 251.297, 387.695 251.121, 389.250 250.493 C 390.212 250.104, 391 248.934, 391 247.893 C 391 245.497, 391.515 245.515, 394 248 C 396.018 250.018, 400 250.756, 400 249.111 C 400 248.622, 399.261 248.285, 398.358 248.361 C 397.454 248.437, 396.494 247.869, 396.224 247.098 C 395.849 246.030, 396.419 245.831, 398.616 246.263 C 400.202 246.575, 404.425 246.281, 408 245.609 L 414.500 244.388 405.335 239.727 C 397.235 235.607, 396.226 234.800, 396.654 232.783 C 397.078 230.780, 397 230.715, 396.019 232.250 C 394.623 234.434, 392.135 234.483, 389.138 232.384 C 387.374 231.149, 387.111 230.502, 388.019 229.634 C 388.910 228.783, 389.467 228.897, 390.247 230.088 C 391.075 231.354, 391.752 231.457, 393.581 230.594 C 395.849 229.523, 395.824 229.464, 391.393 225.454 C 388.093 222.466, 387.091 220.926, 387.595 219.614 C 388.132 218.213, 388.456 218.117, 389.109 219.166 C 389.781 220.246, 390.324 220.261, 391.956 219.250 C 394.659 217.575, 395 217.659, 395 220 C 395 221.179, 395.667 222, 396.625 222 C 397.889 222, 398.120 221.348, 397.664 219.068 C 397.103 216.264, 397.306 216.064, 402.289 214.504 C 412.013 211.462, 416 209.837, 416 208.917 C 416 208.413, 415.516 208, 414.924 208 C 414.332 208, 411.295 206.044, 408.174 203.653 C 405.053 201.262, 400.475 198.175, 398 196.794 C 395.126 195.190, 393.604 193.698, 393.788 192.665 C 393.947 191.775, 393.333 189.911, 392.423 188.523 C 390.634 185.793, 391.046 185.419, 394.066 187.035 C 396.246 188.202, 396.602 190.998, 394.800 192.800 C 394.133 193.467, 394.044 194, 394.600 194 C 396.154 194, 398 191.780, 398 189.911 C 398 188.916, 398.719 188.279, 399.750 188.361 C 400.712 188.437, 401.500 187.825, 401.500 187 C 401.500 186.018, 400.722 185.608, 399.250 185.813 C 397.775 186.018, 397 185.607, 397 184.622 C 397 182.556, 398.935 181.535, 400.287 182.887 C 401.974 184.574, 403.204 184.219, 402.572 182.228 C 402.137 180.855, 403.417 179.682, 408.255 177.021 L 414.500 173.585 408.500 172.311 C 405.200 171.610, 400.052 170.874, 397.060 170.675 C 392.843 170.395, 391.298 169.828, 390.188 168.157 C 388.915 166.239, 388.940 166, 390.413 166 C 391.325 166, 393.180 166.727, 394.535 167.615 C 396.871 169.146, 397 169.126, 397 167.234 C 397 164.661, 391.357 160.460, 387.544 160.194 C 385.918 160.081, 384.141 159.541, 383.594 158.994 C 382.337 157.737, 383.131 157.738, 386.685 158.997 C 389.359 159.944, 389.313 159.827, 385.762 156.652 C 382.044 153.327, 381.631 151.197, 385.059 153.032 C 386.997 154.069, 390 153.361, 390 151.868 C 390 151.363, 388.875 150.523, 387.500 150 C 384.969 149.038, 384.167 146.633, 386 145.500 C 386.550 145.160, 387 145.535, 387 146.334 C 387 147.853, 389.047 149, 391.756 149 C 393.012 149, 392.853 148.472, 391.004 146.504 C 388.083 143.395, 389.044 142.144, 392.576 144.458 C 395.477 146.358, 397.721 145.321, 396.664 142.567 C 396.001 140.840, 394 140.414, 394 142 C 394 142.550, 393.550 143, 393 143 C 392.450 143, 392 142.100, 392 141 C 392 139.324, 392.689 138.989, 396.250 138.932 C 400.027 138.872, 400.251 138.744, 398.263 137.785 C 396.132 136.757, 396.312 136.505, 402.112 132.421 C 405.459 130.064, 408.487 127.847, 408.840 127.493 C 410.122 126.211, 384.538 127.464, 383.179 128.750 C 381.223 130.600, 380.331 130.277, 380.421 127.750 C 380.492 125.729, 380.067 125.519, 376.250 125.689 C 373.156 125.827, 372 125.492, 372 124.458 C 372 122.115, 377.014 121.472, 380.350 123.386 C 382.401 124.563, 383.633 124.767, 384.353 124.047 C 385.792 122.608, 382.898 120.648, 376.230 118.546 C 369.810 116.523, 364.766 117.112, 357.500 120.735 L 352.500 123.229 355.472 120.078 C 357.107 118.344, 359.484 116.666, 360.754 116.347 C 362.933 115.800, 362.963 115.686, 361.282 114.336 C 359.670 113.042, 359.810 112.966, 362.750 113.532 C 366.345 114.225, 366.792 113.532, 364.431 110.923 C 362.979 109.319, 363.092 109.139, 365.931 108.515 C 369.577 107.714, 369.788 106.767, 366.766 104.761 C 364.589 103.315, 364.614 103.290, 367.766 103.752 C 371.481 104.298, 372.075 102.800, 368.750 101.271 C 366.637 100.300, 366.728 100.193, 370.250 99.507 C 372.313 99.106, 374 98.236, 374 97.575 C 374 96.913, 376.025 94.854, 378.500 93 C 380.975 91.146, 383 89.543, 383 89.440 C 383 88.620, 363.758 90.552, 361.094 91.638 C 358.117 92.853, 357.473 92.833, 355.971 91.474 C 354.405 90.057, 354.207 90.099, 353.721 91.960 C 353.188 93.999, 350 94.890, 350 93 C 350 92.450, 350.675 92, 351.500 92 C 352.325 92, 353 91.300, 353 90.443 C 353 89.079, 352.633 89.103, 350.031 90.641 C 348.398 91.606, 346.875 92.194, 346.647 91.947 C 346.419 91.701, 346.996 87.142, 347.928 81.815 L 349.624 72.130 345.562 75.271 C 343.328 76.999, 338.671 81.020, 335.213 84.206 C 329.505 89.467, 325 91.581, 325 89 C 325 88.450, 325.900 88, 327 88 C 329.868 88, 329.472 85.157, 326.500 84.411 C 323.688 83.705, 323.253 82.500, 325.500 81.638 C 327.494 80.873, 327.416 78.097, 325.378 77.315 C 323.985 76.780, 324.076 76.452, 326.022 74.983 C 328.388 73.198, 328.009 71, 325.334 71 C 324.252 71, 324.003 70.473, 324.506 69.250 C 326.750 63.801, 325.570 62.345, 321.441 65.468 C 318.168 67.944, 317.808 67.260, 318.425 59.750 C 318.753 55.763, 318.663 50.937, 318.225 49.026 L 317.429 45.551 316.061 49.026 C 314.475 53.056, 303.832 71.005, 303.036 70.990 C 301.762 70.967, 295.496 49.926, 295.021 44.078 L 294.500 37.655 290.441 49.075 C 286.419 60.391, 285.118 62.075, 282 59.999 C 280.852 59.234, 280.789 58.813, 281.730 58.203 C 282.650 57.608, 282.352 56.510, 280.550 53.859 C 278.476 50.807, 278.267 49.767, 279.046 46.406 C 280.450 40.356, 280.295 40.294, 275.500 45 C 271.056 49.362, 269.691 53.288, 272.250 54.354 C 273.073 54.696, 272.560 55.608, 270.750 57.021 C 267.412 59.626, 267.305 60.564, 270.250 61.422 L 272.500 62.077 270.250 63.660 C 267.784 65.396, 267.122 70.479, 269.250 71.338 C 270.035 71.655, 270.081 71.871, 269.372 71.921 C 267.700 72.038, 266.093 69.717, 265.381 66.155 C 264.936 63.930, 265.127 63, 266.030 63 C 267.005 63, 266.964 62.583, 265.859 61.250 C 265.060 60.288, 262.998 56.125, 261.275 52 C 259.551 47.875, 257.312 42.520, 256.299 40.100 L 254.456 35.700 253.353 40.600 M 274.624 48.539 C 274.281 49.432, 274.029 50.689, 274.063 51.332 C 274.098 51.974, 274.558 51.422, 275.085 50.105 C 275.612 48.787, 275.864 47.531, 275.645 47.312 C 275.426 47.093, 274.966 47.645, 274.624 48.539 M 203 61 C 203 61.550, 203.477 62, 204.059 62 C 204.641 62, 204.840 61.550, 204.500 61 C 204.160 60.450, 203.684 60, 203.441 60 C 203.198 60, 203 60.450, 203 61 M 271 70.622 C 271 71.951, 271.271 72.020, 272.500 71 C 273.325 70.315, 274 69.585, 274 69.378 C 274 69.170, 273.325 69, 272.500 69 C 271.675 69, 271 69.730, 271 70.622 M 269.813 73.683 C 270.534 73.972, 271.397 73.936, 271.729 73.604 C 272.061 73.272, 271.471 73.036, 270.417 73.079 C 269.252 73.127, 269.015 73.364, 269.813 73.683 M 277.027 74.215 C 277.064 75.992, 282.940 82.827, 282.973 81.132 C 282.988 80.380, 281.650 78.226, 280 76.347 C 278.350 74.468, 277.012 73.509, 277.027 74.215 M 271.971 76.072 C 270.747 76.874, 270.972 77.453, 273.306 79.518 C 277.240 82.998, 278.556 82.607, 275.892 78.750 C 274.658 76.963, 273.601 75.412, 273.545 75.304 C 273.488 75.197, 272.780 75.542, 271.971 76.072 M 187.563 77.696 C 186.814 79.648, 189.316 82.541, 190.904 81.559 C 192.611 80.504, 192.195 78.175, 190.100 77.053 C 188.626 76.265, 188.057 76.409, 187.563 77.696 M 285.269 79.750 C 285.934 84.962, 293.897 103.282, 294.071 100 C 294.409 93.586, 293.637 89.969, 290.492 83.250 C 286.742 75.238, 284.501 73.736, 285.269 79.750 M 267 80.393 C 267 80.609, 267.698 81.054, 268.552 81.382 C 269.442 81.723, 269.843 81.555, 269.493 80.989 C 268.906 80.038, 267 79.583, 267 80.393 M 220 83.548 C 220 85.180, 224.642 90, 226.213 90 C 227.442 90, 226.153 85.944, 224.227 83.750 C 222.325 81.584, 220 81.473, 220 83.548 M 193.500 84 C 193.160 84.550, 193.332 85, 193.882 85 C 194.432 85, 195.160 84.550, 195.500 84 C 195.840 83.450, 195.668 83, 195.118 83 C 194.568 83, 193.840 83.450, 193.500 84 M 228 84.015 C 228 85.600, 234.943 92.672, 234.973 91.118 C 235.016 88.909, 230.973 83, 229.418 83 C 228.638 83, 228 83.457, 228 84.015 M 262.055 84.566 C 264.044 86.963, 268.011 88.655, 273.249 89.340 C 275.861 89.682, 279.128 90.245, 280.508 90.591 C 282.805 91.168, 282.944 91.022, 282.145 88.861 C 281.415 86.886, 279.985 86.228, 273.386 84.834 C 269.049 83.917, 264.432 83.130, 263.128 83.084 C 261.085 83.012, 260.936 83.218, 262.055 84.566 M 238 86.368 C 238 87.120, 239.792 90.832, 241.983 94.618 C 244.174 98.403, 246.826 104.875, 247.877 109 L 249.788 116.500 250.462 112 C 251.648 104.090, 248.793 95.251, 242.878 88.513 C 239.627 84.811, 238 84.095, 238 86.368 M 226 90.998 C 224.860 91.716, 224.756 92.370, 225.563 93.722 C 226.728 95.669, 235.047 100.287, 235.883 99.450 C 236.169 99.164, 234.400 96.933, 231.952 94.492 C 228.597 91.147, 227.130 90.287, 226 90.998 M 266.625 93.436 C 259.602 95.999, 260.738 96.606, 272.453 96.552 C 283.787 96.501, 283.875 96.482, 280.668 94.835 C 275.787 92.329, 270.973 91.850, 266.625 93.436 M 172.750 94.299 C 171.238 94.897, 170 96.005, 170 96.761 C 170 97.773, 170.755 97.598, 172.863 96.098 C 174.437 94.976, 176.085 94.383, 176.523 94.780 C 176.962 95.176, 176.997 94.938, 176.601 94.250 C 176.206 93.563, 175.796 93.048, 175.691 93.106 C 175.586 93.165, 174.262 93.702, 172.750 94.299 M 220 96 C 221.083 98.024, 222.174 98.492, 223.264 97.402 C 224.393 96.273, 222.785 94, 220.858 94 C 219.240 94, 219.102 94.321, 220 96 M 346.461 96.043 C 344.942 97.721, 344.901 97.975, 346.229 97.466 C 347.118 97.125, 348.091 96.205, 348.391 95.423 C 349.138 93.476, 348.639 93.636, 346.461 96.043 M 217.500 102.494 C 215.850 103.339, 215.264 103.821, 216.199 103.566 C 217.133 103.311, 220.542 103.594, 223.774 104.195 C 230.442 105.435, 238.664 104.511, 235.703 102.854 C 232.478 101.049, 220.773 100.817, 217.500 102.494 M 360.271 106.355 C 358.134 107.499, 358.120 107.594, 359.920 108.718 C 361.510 109.711, 361.881 109.562, 362.358 107.738 C 363.075 104.998, 362.955 104.918, 360.271 106.355 M 172.869 107.342 C 173.481 108.080, 173.782 108.885, 173.537 109.130 C 173.292 109.375, 173.895 110.078, 174.879 110.692 C 176.267 111.559, 176.667 111.505, 176.667 110.448 C 176.667 109.700, 176.179 109.327, 175.583 109.618 C 174.988 109.910, 175.298 109.495, 176.273 108.697 C 177.947 107.327, 177.918 107.211, 175.773 106.636 C 172.315 105.710, 171.649 105.872, 172.869 107.342 M 331 110.393 C 331 111.364, 333.817 111.729, 335.091 110.923 C 336.116 110.273, 335.751 110.026, 333.750 110.015 C 332.238 110.007, 331 110.177, 331 110.393 M 181.545 112.656 C 183.809 114.312, 185.297 114.391, 184.776 112.829 C 184.561 112.184, 183.333 111.580, 182.046 111.485 C 179.850 111.323, 179.820 111.395, 181.545 112.656 M 206 112.958 C 206 113.566, 206.675 114.322, 207.500 114.638 C 208.325 114.955, 209 115.867, 209 116.666 C 209 117.465, 208.629 117.889, 208.177 117.609 C 207.724 117.329, 207.322 119.070, 207.284 121.478 C 207.234 124.630, 207.571 125.718, 208.487 125.366 C 209.348 125.036, 209.718 122.880, 209.630 118.702 C 209.524 113.678, 209.174 112.463, 207.750 112.190 C 206.787 112.005, 206 112.350, 206 112.958 M 325.813 114.683 C 326.534 114.972, 327.397 114.936, 327.729 114.604 C 328.061 114.272, 327.471 114.036, 326.417 114.079 C 325.252 114.127, 325.015 114.364, 325.813 114.683 M 352.638 116.500 C 352.322 117.325, 352.499 118, 353.031 118 C 353.564 118, 354 117.325, 354 116.500 C 354 115.675, 353.823 115, 353.607 115 C 353.391 115, 352.955 115.675, 352.638 116.500 M 355.079 116.583 C 355.127 117.748, 355.364 117.985, 355.683 117.188 C 355.972 116.466, 355.936 115.603, 355.604 115.271 C 355.272 114.939, 355.036 115.529, 355.079 116.583 M 139 120.441 C 139 123.385, 140.737 124.700, 142.337 122.966 C 143.245 121.983, 143.171 121.891, 142 122.545 C 140.686 123.280, 140.678 123.164, 141.936 121.616 C 143.183 120.079, 143.183 119.729, 141.936 118.939 C 139.654 117.495, 139 117.829, 139 120.441 M 324 119 C 325.939 120.253, 327 120.253, 327 119 C 327 118.450, 325.988 118.007, 324.750 118.015 C 322.931 118.028, 322.787 118.216, 324 119 M 124 121.893 C 124 122.997, 126.595 124.072, 127.375 123.292 C 127.689 122.978, 127.706 122.334, 127.414 121.861 C 126.712 120.725, 124 120.750, 124 121.893 M 349 122 C 349 122.550, 349.477 123, 350.059 123 C 350.641 123, 350.840 122.550, 350.500 122 C 350.160 121.450, 349.684 121, 349.441 121 C 349.198 121, 349 121.450, 349 122 M 325.813 122.683 C 326.534 122.972, 327.397 122.936, 327.729 122.604 C 328.061 122.272, 327.471 122.036, 326.417 122.079 C 325.252 122.127, 325.015 122.364, 325.813 122.683 M 127.530 124.951 C 126.667 126.348, 127.767 128, 129.559 128 C 131.395 128, 131.410 126.585, 129.589 125.074 C 128.624 124.273, 127.973 124.235, 127.530 124.951 M 349.500 125 C 349.840 125.550, 350.316 126, 350.559 126 C 350.802 126, 351 125.550, 351 125 C 351 124.450, 350.523 124, 349.941 124 C 349.359 124, 349.160 124.450, 349.500 125 M 174 125.787 C 174 126.220, 174.900 126.642, 176 126.725 C 177.100 126.808, 178 126.454, 178 125.938 C 178 125.422, 177.100 125, 176 125 C 174.900 125, 174 125.354, 174 125.787 M 134 126.941 C 134 127.459, 134.450 128.160, 135 128.500 C 135.550 128.840, 136 128.416, 136 127.559 C 136 126.702, 135.550 126, 135 126 C 134.450 126, 134 126.423, 134 126.941 M 139.460 129.415 C 137.637 130.756, 137.622 130.905, 139.250 131.536 C 141.502 132.408, 144.283 131.348, 143.771 129.812 C 143.159 127.976, 141.609 127.834, 139.460 129.415 M 308 129.775 C 308 131.603, 308.830 131.907, 315.545 132.536 C 319.695 132.925, 323.337 132.997, 323.638 132.695 C 324.665 131.669, 317.907 128.895, 312.946 128.307 C 308.433 127.773, 308 127.901, 308 129.775 M 355.676 129.452 C 349.989 131.480, 349.621 132.175, 353.593 133.393 C 355.708 134.042, 361 130.851, 361 128.927 C 361 127.731, 360.309 127.799, 355.676 129.452 M 363.667 128.667 C 362.669 129.664, 362.863 133, 363.918 133 C 365.911 133, 368 131.720, 368 130.500 C 368 129.793, 367.288 128.941, 366.418 128.607 C 364.460 127.855, 364.478 127.855, 363.667 128.667 M 371.114 129.637 C 372.342 131.117, 376.466 131.563, 375.574 130.119 C 375.274 129.635, 373.894 129.022, 372.506 128.756 C 370.463 128.366, 370.198 128.533, 371.114 129.637 M 133 131.969 C 133 132.501, 133.675 132.678, 134.500 132.362 C 135.325 132.045, 136 131.609, 136 131.393 C 136 131.177, 135.325 131, 134.500 131 C 133.675 131, 133 131.436, 133 131.969 M 241 132 C 241 132.550, 240.662 132.887, 240.250 132.750 C 239.838 132.613, 239.354 132.939, 239.175 133.475 C 238.527 135.419, 240.893 135.068, 241.967 133.061 C 242.704 131.684, 242.727 131, 242.035 131 C 241.466 131, 241 131.450, 241 132 M 150.631 133.520 C 150.292 134.404, 149.561 134.847, 149.007 134.504 C 147.258 133.423, 147.916 135.533, 150.039 137.811 C 151.160 139.015, 152.997 140, 154.121 140 C 156.140 140, 156.137 139.957, 153.908 136.250 C 152.668 134.188, 151.561 132.368, 151.450 132.207 C 151.338 132.046, 150.970 132.637, 150.631 133.520 M 179.490 134.339 C 172.631 136.890, 162.419 143.348, 160.974 146.049 C 159.219 149.327, 159.816 150.351, 162.468 148.613 C 163.825 147.724, 167.192 146.107, 169.951 145.019 C 172.709 143.932, 177.945 141.233, 181.585 139.021 C 188.345 134.915, 192.091 133.374, 186.305 137.080 C 182.022 139.824, 176.412 148.507, 175.535 153.750 C 175.144 156.088, 175.055 158, 175.337 158 C 175.619 158, 177.953 154.512, 180.523 150.250 C 183.093 145.988, 186.294 141.333, 187.636 139.906 C 190.253 137.123, 191.760 132, 189.961 132 C 189.367 132, 189.200 132.563, 189.588 133.250 C 190.152 134.250, 190.024 134.250, 188.947 133.250 C 187.194 131.623, 186.614 131.690, 179.490 134.339 M 140 135.927 C 140 138.331, 144.611 142.086, 146.618 141.316 C 147.845 140.846, 147.714 140.324, 145.880 138.372 C 144.654 137.067, 143.028 136, 142.267 136 C 141.505 136, 141.160 135.550, 141.500 135 C 141.840 134.450, 141.641 134, 141.059 134 C 140.477 134, 140 134.867, 140 135.927 M 225 134.723 C 225 135.696, 234.973 139.360, 235.685 138.648 C 235.893 138.441, 234.921 137.523, 233.527 136.610 C 230.431 134.581, 225 133.380, 225 134.723 M 244.459 135.067 C 244.096 135.653, 244.050 136.384, 244.357 136.690 C 245.179 137.513, 248 136.229, 248 135.031 C 248 133.674, 245.303 133.701, 244.459 135.067 M 302.191 135.850 C 298.564 136.871, 299.529 138.439, 304.217 139.143 C 319.624 141.455, 319.604 141.454, 318.073 139.599 C 314.784 135.611, 308.394 134.103, 302.191 135.850 M 118.785 137.750 C 116.997 139.803, 117.495 142, 119.750 142 C 120.621 142, 121.055 141.721, 120.714 141.381 C 120.374 141.040, 120.753 140.104, 121.557 139.300 C 122.970 137.887, 122.706 136, 121.096 136 C 120.664 136, 119.624 136.787, 118.785 137.750 M 349.500 136.939 C 347.850 137.383, 345.165 138.280, 343.534 138.931 C 339.480 140.549, 341.816 141.880, 347.747 141.331 C 350.239 141.100, 355.704 141.667, 359.889 142.590 C 370.540 144.940, 375.481 145.285, 374.066 143.580 C 372.288 141.437, 361.861 137.200, 357 136.644 C 354.525 136.362, 351.150 136.494, 349.500 136.939 M 191.103 140.526 C 185.984 145.151, 181.386 153.103, 179.944 159.825 C 178.210 167.909, 179.267 167.930, 183.445 159.897 C 185.561 155.829, 188.713 150.475, 190.449 148 C 193.871 143.123, 196.343 138.010, 195.626 137.293 C 195.380 137.046, 193.344 138.501, 191.103 140.526 M 197.561 139.266 C 195.369 142.612, 193.346 148.846, 192.532 154.770 C 191.943 159.052, 192.082 160, 193.298 160 C 194.114 160, 195.524 158.147, 196.431 155.882 C 198.076 151.770, 200.957 140.615, 200.985 138.250 C 201.009 136.256, 199.177 136.800, 197.561 139.266 M 300.333 142.410 C 300.333 143.234, 301.088 143.676, 302.146 143.472 C 303.142 143.280, 304.219 143.545, 304.538 144.061 C 304.857 144.578, 304.529 145.010, 303.809 145.022 C 303.089 145.034, 303.625 145.910, 305 146.968 C 306.677 148.259, 307.829 148.560, 308.500 147.884 C 309.169 147.210, 308.340 145.912, 306 143.965 C 302.142 140.756, 300.333 140.260, 300.333 142.410 M 123.736 142.598 C 122.762 143.571, 124.099 146, 125.607 146 C 126.373 146, 127 145.100, 127 144 C 127 142.117, 125.052 141.281, 123.736 142.598 M 228.250 143.125 C 228.387 143.744, 227.875 144.477, 227.111 144.755 C 226.179 145.093, 225.983 144.837, 226.515 143.975 C 227.025 143.151, 226.911 142.937, 226.198 143.378 C 225.587 143.755, 225.327 144.689, 225.620 145.453 C 226.052 146.577, 226.807 146.456, 229.577 144.822 C 233.661 142.413, 233.796 142, 230.500 142 C 229.125 142, 228.113 142.506, 228.250 143.125 M 138.344 143.999 C 132.814 145.149, 126.315 148.543, 125.026 150.952 C 124.006 152.858, 124.102 152.856, 129.742 150.853 C 133.153 149.642, 139.287 148.588, 144.790 148.266 C 153.869 147.736, 154.035 147.682, 152.106 145.884 C 149.691 143.634, 143.906 142.841, 138.344 143.999 M 231.024 147.125 C 229.381 149.394, 228.280 151.644, 228.577 152.125 C 228.875 152.606, 228.566 153, 227.892 153 C 227.218 153, 226.971 153.305, 227.344 153.677 C 228.386 154.719, 234.120 148.756, 233.537 147.236 C 233.254 146.499, 233.445 146.157, 233.961 146.476 C 234.477 146.795, 235.388 146.143, 235.985 145.028 C 238.068 141.136, 234.169 142.785, 231.024 147.125 M 248.613 145.183 C 248.902 145.650, 249.557 145.774, 250.069 145.457 C 251.377 144.649, 251.230 144.333, 249.544 144.333 C 248.743 144.333, 248.324 144.716, 248.613 145.183 M 348.002 144.764 C 345.862 145.141, 346.435 145.641, 352.002 148.249 C 360.156 152.070, 361.245 152.327, 360.079 150.148 C 357.844 145.971, 353.114 143.863, 348.002 144.764 M 237.597 147.500 C 234.595 158.880, 234.553 160.536, 237.425 154.166 C 238.381 152.047, 238.989 149.004, 238.776 147.406 L 238.389 144.500 237.597 147.500 M 241.538 153.500 C 241.917 157.900, 242.361 161.648, 242.525 161.829 C 242.690 162.009, 243.145 159.157, 243.538 155.490 C 244.136 149.906, 243.976 148.553, 242.551 147.162 C 240.952 145.599, 240.891 145.979, 241.538 153.500 M 245 146.800 C 245 147.240, 245.428 148.028, 245.951 148.551 C 246.475 149.075, 248.267 151.977, 249.933 155.001 C 251.600 158.026, 252.972 159.769, 252.982 158.875 C 253.025 155.026, 251.592 150.852, 249.426 148.514 C 247.139 146.047, 245 145.219, 245 146.800 M 341 147.946 C 343.315 149.697, 352.733 154.272, 350.750 152.682 C 349.788 151.911, 349 150.534, 349 149.624 C 349 148.448, 348.203 148.011, 346.250 148.117 C 344.738 148.200, 342.600 147.939, 341.500 147.539 C 339.860 146.942, 339.770 147.016, 341 147.946 M 299.638 149.500 C 299.955 150.325, 300.671 151, 301.229 151 C 301.815 151, 301.718 150.365, 301 149.500 C 300.315 148.675, 299.599 148, 299.409 148 C 299.219 148, 299.322 148.675, 299.638 149.500 M 287.333 151.630 C 287.333 153.291, 291.692 156.641, 292.631 155.702 C 293.648 154.685, 291.933 153, 289.882 153 C 288.782 153, 288.141 152.581, 288.457 152.069 C 288.774 151.557, 288.650 150.902, 288.183 150.613 C 287.716 150.324, 287.333 150.782, 287.333 151.630 M 327.377 151.749 C 325.845 154.228, 324.648 160.004, 325.671 159.985 C 328.086 159.940, 329.109 158.031, 328.815 154.117 C 328.547 150.551, 328.334 150.200, 327.377 151.749 M 335.999 151.593 C 337.644 154.183, 345.998 160.335, 346.792 159.542 C 347.993 158.340, 345.393 155.679, 340.092 152.684 C 335.847 150.285, 335.029 150.068, 335.999 151.593 M 323.717 152.994 C 322.949 154.090, 322.096 154.762, 321.821 154.488 C 321.546 154.213, 320.461 154.995, 319.411 156.227 C 317.864 158.039, 317.833 158.207, 319.250 157.110 C 321.281 155.538, 321.566 156.603, 319.750 158.976 C 319.063 159.875, 319.769 159.235, 321.320 157.555 C 324.214 154.419, 326.442 151, 325.592 151 C 325.329 151, 324.485 151.897, 323.717 152.994 M 332.393 153.582 C 332.727 154.452, 333 158.078, 333 161.641 C 333 165.980, 333.353 167.900, 334.068 167.458 C 334.656 167.095, 334.895 166.168, 334.600 165.399 C 334.304 164.629, 334.499 164, 335.031 164 C 336.464 164, 336.207 159.431, 334.551 155.468 C 333.150 152.116, 331.164 150.380, 332.393 153.582 M 277.079 155.583 C 277.127 156.748, 277.364 156.985, 277.683 156.188 C 277.972 155.466, 277.936 154.603, 277.604 154.271 C 277.272 153.939, 277.036 154.529, 277.079 155.583 M 142.500 156.404 C 140.300 157.092, 138.613 158.183, 138.750 158.828 C 138.887 159.472, 138.494 159.887, 137.875 159.750 C 137.256 159.613, 136.544 160.063, 136.291 160.751 C 135.984 161.588, 136.410 161.780, 137.580 161.331 C 138.772 160.873, 139.098 161.032, 138.605 161.830 C 138.207 162.474, 137.260 163, 136.500 163 C 135.740 163, 134.866 163.408, 134.558 163.907 C 133.541 165.552, 137.835 163.840, 139.590 161.900 C 140.536 160.855, 141.906 160, 142.635 160 C 144.821 160, 152 156.850, 152 155.891 C 152 154.654, 147.282 154.909, 142.500 156.404 M 379.613 158.183 C 379.902 158.650, 380.557 158.774, 381.069 158.457 C 382.377 157.649, 382.230 157.333, 380.544 157.333 C 379.743 157.333, 379.324 157.716, 379.613 158.183 M 149.500 159.896 C 143.411 162.715, 136.013 171.805, 136.004 176.478 C 136.001 178.033, 136.689 177.605, 139.222 174.478 C 140.994 172.290, 145.115 167.688, 148.381 164.250 C 151.646 160.813, 154.133 158.010, 153.909 158.022 C 153.684 158.034, 151.700 158.877, 149.500 159.896 M 334.158 160 C 334.158 161.375, 334.385 161.938, 334.662 161.250 C 334.940 160.563, 334.940 159.438, 334.662 158.750 C 334.385 158.063, 334.158 158.625, 334.158 160 M 150.821 164.750 C 148.850 166.813, 146.778 169.400, 146.217 170.500 C 145.014 172.860, 143.520 182, 144.338 182 C 144.648 182, 146.569 178.963, 148.607 175.250 C 150.645 171.537, 153.367 167.068, 154.656 165.317 C 157.346 161.664, 157.507 161, 155.703 161 C 154.990 161, 152.793 162.688, 150.821 164.750 M 190.917 163.083 C 188.203 165.797, 188.759 166.181, 193.506 164.871 C 195.648 164.279, 199.560 164.082, 202.200 164.432 C 205.156 164.824, 207 164.685, 207 164.070 C 207 160.540, 194.242 159.758, 190.917 163.083 M 279 161.941 C 279 162.459, 279.445 163.157, 279.989 163.493 C 280.555 163.843, 280.723 163.442, 280.382 162.552 C 279.717 160.820, 279 160.503, 279 161.941 M 125.543 165.931 C 124.803 167.128, 126.684 168.313, 128.016 167.490 C 129.135 166.799, 128.400 165, 127 165 C 126.515 165, 125.859 165.419, 125.543 165.931 M 373.750 165.689 C 370.742 166.476, 371.828 167.717, 376.127 168.404 C 378.396 168.767, 381.197 169.725, 382.349 170.532 C 383.502 171.339, 385.357 171.982, 386.473 171.961 C 387.927 171.933, 387.538 171.504, 385.099 170.446 C 383.228 169.634, 381.983 168.683, 382.333 168.334 C 382.683 167.984, 382.188 167.105, 381.234 166.381 C 379.497 165.061, 377.026 164.833, 373.750 165.689 M 383.500 166 C 383.840 166.550, 385.018 167, 386.118 167 C 387.218 167, 387.840 166.550, 387.500 166 C 387.160 165.450, 385.982 165, 384.882 165 C 383.782 165, 383.160 165.450, 383.500 166 M 157.127 168.347 C 156.413 169.208, 156.118 170.382, 156.473 170.956 C 156.828 171.530, 156.694 172, 156.176 172 C 155.657 172, 155.018 173.125, 154.755 174.500 C 154.178 177.519, 155.072 177.682, 157.500 175 C 158.526 173.866, 158.810 173, 158.155 173 C 156.868 173, 157.017 170.852, 158.372 169.866 C 158.851 169.517, 159.060 168.680, 158.835 168.006 C 158.541 167.122, 158.065 167.217, 157.127 168.347 M 196.222 168.661 C 194.419 169.550, 193.148 170.481, 193.398 170.731 C 193.935 171.268, 205 168.160, 205 167.472 C 205 166.387, 199.257 167.165, 196.222 168.661 M 200.770 171.322 C 198.331 173.380, 196 176.951, 196 178.630 C 196 179.049, 197.463 177.999, 199.250 176.296 C 201.037 174.593, 203.969 172.323, 205.764 171.252 L 209.027 169.305 206.190 169.224 C 204.629 169.180, 202.191 170.124, 200.770 171.322 M 359.639 169.694 C 358.513 170.820, 358.954 172, 360.500 172 C 361.325 172, 362 171.577, 362 171.059 C 362 169.798, 360.438 168.895, 359.639 169.694 M 207.104 174.535 C 205.397 176.479, 204 178.520, 204 179.070 C 204 180.811, 207.514 178.326, 210.396 174.548 C 214.053 169.753, 211.311 169.742, 207.104 174.535 M 369.504 172.007 C 370.739 174.005, 376.107 176.101, 378.248 175.421 L 380.396 174.739 378.087 172.870 C 375.689 170.927, 368.383 170.193, 369.504 172.007 M 108.122 174.904 C 106.549 175.900, 107.451 178, 109.452 178 C 110.567 178, 112 175.985, 112 174.418 C 112 173.690, 109.555 173.996, 108.122 174.904 M 366.750 175.075 C 368.232 176.646, 368.444 180.392, 367 179.500 C 366.450 179.160, 366 179.359, 366 179.941 C 366 180.523, 366.704 181, 367.563 181 C 369.635 181, 369.124 174.842, 367 174.202 C 365.789 173.837, 365.741 174.006, 366.750 175.075 M 256.641 179.085 C 254.088 181.332, 252 183.642, 252 184.220 C 252 184.797, 252.936 184.080, 254.080 182.625 C 255.224 181.171, 256.511 180.198, 256.940 180.463 C 257.368 180.728, 258.911 179.607, 260.367 177.972 C 264.189 173.682, 262.054 174.320, 256.641 179.085 M 104 178.059 C 104 178.641, 104.450 178.840, 105 178.500 C 105.550 178.160, 106 177.684, 106 177.441 C 106 177.198, 105.550 177, 105 177 C 104.450 177, 104 177.477, 104 178.059 M 358 181.638 C 358 181.989, 360.493 185.531, 363.540 189.509 C 366.587 193.487, 370.668 199.613, 372.610 203.121 L 376.141 209.500 375.540 205 C 374.627 198.162, 370.474 190.611, 364.841 185.547 C 360.134 181.315, 358 180.096, 358 181.638 M 349.379 183.183 C 348.159 185.140, 347.909 187.826, 348.892 188.433 C 349.368 188.727, 350.039 187.553, 350.385 185.824 C 351.083 182.337, 350.637 181.167, 349.379 183.183 M 233.994 184.934 C 222.506 188.429, 210.760 203.672, 209.670 216.500 C 209.436 219.250, 209.439 220.600, 209.677 219.500 C 211.847 209.449, 217.051 199.351, 222.422 194.769 C 225.837 191.856, 236.577 187.001, 239.643 186.985 C 243.764 186.963, 245.829 185.454, 242.835 184.652 C 239.910 183.869, 237.212 183.955, 233.994 184.934 M 256 184.981 C 256 185.520, 257.238 186.239, 258.750 186.578 C 260.262 186.917, 262.962 187.564, 264.750 188.016 C 266.538 188.469, 268 188.643, 268 188.405 C 268 188.166, 266.538 187.079, 264.750 185.989 C 261.346 183.914, 256 183.298, 256 184.981 M 354.515 187.084 C 354.150 188.538, 354.533 190.793, 355.440 192.532 L 356.988 195.500 356.979 191.500 C 356.967 186.326, 355.407 183.530, 354.515 187.084 M 243.049 187.798 C 241.151 188.734, 238.689 191.075, 237.579 193 L 235.560 196.500 240.777 192.159 C 245.357 188.349, 247.776 185.898, 246.809 186.048 C 246.639 186.074, 244.947 186.862, 243.049 187.798 M 283.166 187.834 C 282.097 188.546, 282.162 188.848, 283.498 189.361 C 286.229 190.409, 292.536 190.136, 291.419 189.019 C 289.968 187.568, 284.701 186.812, 283.166 187.834 M 358 187.428 C 358 187.797, 358.752 189.539, 359.672 191.300 C 360.591 193.060, 362.365 197.425, 363.613 201 L 365.883 207.500 365.941 201.984 C 366.006 195.918, 363.775 190.591, 360.167 188.195 C 358.975 187.404, 358 187.058, 358 187.428 M 299.028 188.962 C 297.761 189.763, 297.789 189.982, 299.230 190.535 C 301.206 191.293, 303.280 190.262, 302.457 188.931 C 301.738 187.768, 300.904 187.775, 299.028 188.962 M 246.250 193.426 C 243.266 197.940, 243.008 198.964, 243.100 205.921 C 243.204 213.851, 244.695 221.742, 244.900 215.455 C 244.955 213.780, 246.149 207.988, 247.554 202.584 C 248.958 197.180, 249.971 191.802, 249.804 190.633 C 249.552 188.870, 248.947 189.346, 246.250 193.426 M 256 189.566 C 256 190.980, 258.615 194.862, 262.245 198.839 C 264.424 201.226, 267.903 206.788, 269.976 211.199 C 274.125 220.025, 275.672 220.085, 274.058 211.358 C 272.827 204.696, 269.315 198.315, 263.898 192.898 C 260.593 189.593, 256 187.655, 256 189.566 M 329.250 189.746 C 326.646 190.201, 326.390 191.249, 328.464 192.970 C 329.857 194.126, 347.005 200.551, 351.738 201.690 C 352.969 201.986, 353.734 202.622, 353.436 203.103 C 353.139 203.584, 353.627 203.697, 354.520 203.354 C 355.854 202.842, 355.485 202.057, 352.448 198.946 C 346.888 193.253, 335.353 188.678, 329.250 189.746 M 243.738 193.250 C 241.243 196.680, 238.152 203.206, 239.831 201.500 C 241.147 200.162, 247.062 190, 246.525 190 C 246.292 190, 245.038 191.463, 243.738 193.250 M 252.617 191.556 C 251.741 193.837, 251.985 212.101, 252.922 214.500 L 253.704 216.500 254.330 214.500 C 255.632 210.336, 257.034 197.430, 256.465 194.839 C 255.677 191.254, 253.459 189.361, 252.617 191.556 M 389 193 C 389.825 193.533, 390.950 193.969, 391.500 193.969 C 392.050 193.969, 391.825 193.533, 391 193 C 390.175 192.467, 389.050 192.031, 388.500 192.031 C 387.950 192.031, 388.175 192.467, 389 193 M 176.323 193.696 C 175.125 193.929, 173.561 194.824, 172.846 195.685 C 171.685 197.084, 172.128 197.179, 177.024 196.583 C 189.244 195.096, 190.634 194.774, 188.500 193.931 C 186.398 193.100, 180.016 192.977, 176.323 193.696 M 285 193.728 C 284.175 194.042, 282.427 195.131, 281.115 196.149 C 277.761 198.752, 280.501 198.456, 286.500 195.566 C 290.449 193.664, 290.975 193.158, 289 193.158 C 287.625 193.158, 285.825 193.415, 285 193.728 M 296 194.777 C 296 195.205, 296.745 196.618, 297.655 197.918 C 298.565 199.217, 299.578 201.580, 299.905 203.167 L 300.500 206.054 301.582 202.586 C 302.545 199.500, 302.403 198.836, 300.292 196.559 C 297.966 194.051, 296 193.235, 296 194.777 M 286.454 198.750 C 284.559 200.813, 283.007 202.867, 283.005 203.315 C 282.995 204.977, 290.605 198.599, 290.738 196.834 C 290.933 194.244, 290.355 194.503, 286.454 198.750 M 293.284 196.162 C 291.603 198.195, 289.609 213.478, 290.756 215.529 C 292.146 218.011, 296.451 200.394, 295.250 197.146 C 294.559 195.278, 294.175 195.086, 293.284 196.162 M 120 200.442 C 116.406 201.204, 114.500 202.109, 114.500 203.054 C 114.500 204.059, 115.378 204.397, 117.381 204.161 L 120.263 203.822 118.085 206.881 C 116.887 208.563, 115.478 210.205, 114.953 210.529 C 114.429 210.853, 114.008 211.654, 114.017 212.309 C 114.026 212.964, 115.994 211.411, 118.389 208.858 C 120.784 206.305, 123.814 203.877, 125.121 203.462 C 127.231 202.792, 127.087 203.161, 123.831 206.765 C 116.902 214.435, 116.482 217.925, 123.257 211.535 C 126.510 208.466, 132 200.922, 132 199.520 C 132 198.705, 126.034 199.163, 120 200.442 M 324.113 201.250 C 324.764 202.488, 326.520 205.300, 328.015 207.500 C 334.938 217.684, 339.749 230.113, 340.889 240.760 L 341.611 247.500 342.949 241.500 C 345.664 229.322, 340.889 213.460, 331.585 203.750 C 326.676 198.627, 321.892 197.026, 324.113 201.250 M 177.180 202.004 C 174.804 203.083, 173.123 204.389, 173.443 204.908 C 174.291 206.280, 178.610 205.503, 186.003 202.648 L 192.500 200.139 187 200.092 C 183.582 200.062, 179.865 200.786, 177.180 202.004 M 318 201.121 C 318 201.802, 319.107 207.116, 320.459 212.930 C 321.811 218.743, 323.314 225.525, 323.799 228 L 324.680 232.500 325.467 226.657 C 326.557 218.565, 325.396 210.351, 322.453 205.330 C 319.805 200.812, 318 199.105, 318 201.121 M 105.393 203.582 C 105.727 204.452, 106 205.352, 106 205.582 C 106 206.628, 108.412 205.821, 110.727 204 L 113.270 202 109.028 202 C 105.571 202, 104.898 202.293, 105.393 203.582 M 131.491 204.604 C 127.988 208.384, 124.810 215.488, 125.180 218.711 C 125.474 221.273, 125.803 220.971, 129.223 215 C 131.270 211.425, 133.902 207.037, 135.071 205.250 C 136.917 202.427, 136.980 202, 135.550 202 C 134.645 202, 132.818 203.172, 131.491 204.604 M 137.950 204.750 C 133.886 209.510, 133.003 211.633, 133.070 216.473 C 133.207 226.256, 134.480 225.642, 136.929 214.609 C 138.218 208.802, 139.661 204.291, 140.136 204.584 C 140.611 204.878, 141 204.641, 141 204.059 C 141 202.471, 139.631 202.781, 137.950 204.750 M 186.106 204.288 C 178.927 206.581, 164.731 223.252, 166.355 227.483 C 166.648 228.246, 166.350 229.089, 165.694 229.356 C 164.880 229.688, 164.936 229.867, 165.872 229.921 C 167.015 229.987, 167.024 230.294, 165.927 231.750 C 162.469 236.342, 168.221 229.843, 174.998 221.500 C 179.019 216.550, 184.360 210.363, 186.867 207.750 C 191.647 202.768, 191.596 202.535, 186.106 204.288 M 192.345 205.363 C 188.011 209.010, 184.794 217.070, 184.309 225.500 L 183.906 232.500 186.815 225.500 C 188.415 221.650, 191.150 215.390, 192.892 211.590 C 194.634 207.789, 195.917 204.251, 195.742 203.726 C 195.567 203.201, 194.039 203.938, 192.345 205.363 M 140.975 207.565 C 140.439 208.976, 140 211.399, 140 212.950 C 140 216.991, 142.987 225.679, 145.005 227.505 C 146.622 228.968, 146.643 228.753, 145.361 223.811 C 144.613 220.925, 144 215.512, 144 211.782 C 144 204.745, 142.724 202.966, 140.975 207.565 M 196.635 209.955 C 194.898 214.295, 194.605 220.198, 195.963 223.500 C 197.030 226.094, 197.502 224.815, 199.042 215.156 C 200.440 206.386, 199.165 203.631, 196.635 209.955 M 148.368 216.669 C 148.986 221.175, 151.758 226.783, 155.948 232 C 157.679 234.155, 157.543 233.258, 154.963 225.500 C 153.317 220.550, 151.451 215.488, 150.816 214.250 C 148.873 210.461, 147.679 211.641, 148.368 216.669 M 203.030 214.450 C 203.008 216.601, 203.299 217.101, 204.104 216.296 C 204.895 215.505, 204.903 214.670, 204.134 213.346 C 203.193 211.728, 203.057 211.864, 203.030 214.450 M 107.667 227.667 C 107.300 228.033, 107 228.798, 107 229.367 C 107 229.993, 107.466 229.934, 108.183 229.217 C 108.834 228.566, 109.134 227.801, 108.850 227.517 C 108.566 227.232, 108.033 227.300, 107.667 227.667 M 377.094 227.942 C 376.116 228.547, 376.368 229.144, 378.121 230.372 C 380.995 232.386, 382 232.428, 382 230.535 C 382 228.626, 378.759 226.913, 377.094 227.942 M 110.506 229.994 C 108.849 231.825, 108.837 232, 110.376 232 C 111.304 232, 112.329 231.306, 112.655 230.457 C 113.586 228.030, 112.495 227.795, 110.506 229.994 M 383.667 228.667 C 382.487 229.846, 382.956 232, 384.393 232 C 385.555 232, 387 230.015, 387 228.418 C 387 227.744, 384.395 227.938, 383.667 228.667 M 373.636 231.506 C 373.321 232.328, 373.472 233, 373.972 233 C 375.328 233, 376.170 231.223, 375.121 230.575 C 374.620 230.265, 373.952 230.684, 373.636 231.506 M 116.714 232.714 C 115.557 233.872, 115 234.015, 115 233.155 C 115 232.455, 114.550 232.160, 114 232.500 C 112.391 233.494, 112.849 235, 114.759 235 C 115.727 235, 117.081 234.100, 117.768 233 C 119.299 230.548, 118.970 230.459, 116.714 232.714 M 286.147 235.540 C 284.525 237.603, 284.089 239.130, 284.539 241.178 C 284.958 243.087, 284.639 244.503, 283.543 245.599 C 282.301 246.842, 282.196 247.531, 283.084 248.601 C 283.970 249.669, 283.849 250.582, 282.560 252.549 C 281.638 253.956, 280.235 255.356, 279.442 255.661 C 278.649 255.965, 278 257.050, 278 258.072 C 278 260.651, 274.191 262.662, 273.368 260.518 C 272.934 259.386, 272.416 259.239, 271.511 259.991 C 270.157 261.115, 268.401 257.840, 267.764 253 C 267.439 250.530, 267.391 250.547, 263.728 254.434 C 261.690 256.597, 259.746 259.836, 259.409 261.631 C 258.637 265.750, 259.258 282.594, 260.218 283.553 C 261.546 284.878, 267.216 281.689, 271.955 276.950 C 276.961 271.944, 287.516 255.176, 289.068 249.762 C 290.158 245.963, 290.185 237.330, 289.116 234.606 C 288.431 232.860, 288.198 232.933, 286.147 235.540 M 225.269 238.972 C 225.872 243.462, 223.821 251.074, 221.486 253.011 C 220.388 253.923, 219.698 253.169, 217.986 249.188 C 215.859 244.246, 215.842 244.233, 212.676 245.345 C 210.929 245.958, 209.358 246.536, 209.185 246.629 C 208.642 246.919, 215.084 259.181, 219.221 265.733 C 223.823 273.020, 228.777 277.536, 236.936 281.885 C 246.612 287.042, 247 286.662, 247 272.021 C 247 262.723, 246.811 261.838, 243.418 255.241 C 239.300 247.237, 232.182 238.663, 227.754 236.373 L 224.710 234.798 225.269 238.972 M 296.607 236.582 C 296.273 237.452, 296 239.739, 296 241.665 C 296 246.134, 297.746 245.682, 300.697 240.449 C 302.319 237.573, 302.581 236.353, 301.697 235.792 C 299.704 234.525, 297.250 234.906, 296.607 236.582 M 244 239.040 C 244 241.032, 247.847 249.535, 248.437 248.847 C 248.601 248.656, 249.037 246.830, 249.405 244.788 C 249.944 241.811, 249.673 240.673, 248.038 239.038 C 245.444 236.444, 244 236.444, 244 239.040 M 314.099 241.585 C 310.745 244.106, 308 246.414, 308 246.713 C 308 247.011, 309.913 246.920, 312.250 246.511 C 314.587 246.101, 318.188 245.837, 320.250 245.924 C 322.350 246.012, 324 245.609, 324 245.008 C 324 243.608, 321.236 237, 320.650 237 C 320.402 237, 317.454 239.063, 314.099 241.585 M 113.500 240 C 113.160 240.550, 113.359 241, 113.941 241 C 114.523 241, 115 240.550, 115 240 C 115 239.450, 114.802 239, 114.559 239 C 114.316 239, 113.840 239.450, 113.500 240 M 261.315 243.007 C 258.814 244.015, 257 246.926, 257 249.934 C 257 253.146, 258.223 252.387, 261.758 246.982 C 265.106 241.862, 265.065 241.496, 261.315 243.007 M 366.500 243.516 C 365.950 243.686, 364.197 244.114, 362.605 244.468 C 357.806 245.534, 360.969 246.924, 369.110 247.327 C 375.033 247.621, 376.667 247.405, 376.667 246.328 C 376.667 245.573, 375.617 244.740, 374.333 244.477 C 369.277 243.443, 367.459 243.220, 366.500 243.516 M 383 246.001 C 381.353 247.065, 381.450 247.146, 384.788 247.493 C 386.047 247.624, 386.919 247.257, 386.726 246.678 C 386.219 245.158, 384.726 244.887, 383 246.001 M 200 247.441 C 200 248.298, 200.450 249, 201 249 C 201.550 249, 202 248.577, 202 248.059 C 202 247.541, 201.550 246.840, 201 246.500 C 200.450 246.160, 200 246.584, 200 247.441 M 366 251.907 C 367.925 253.618, 370.400 255.525, 371.500 256.145 C 373.106 257.049, 373.007 256.733, 371 254.541 C 369.625 253.039, 367.150 251.132, 365.500 250.303 C 362.537 248.814, 362.543 248.834, 366 251.907 M 375 250 C 376.178 250.761, 376.206 250.973, 375.128 250.985 C 374.021 250.997, 373.996 251.291, 375 252.500 C 375.685 253.325, 377.202 253.968, 378.372 253.930 C 380.448 253.861, 380.451 253.838, 378.500 253 C 377.400 252.527, 377.118 252.109, 377.872 252.070 C 379.910 251.966, 377.241 248.995, 375.128 249.015 C 373.711 249.029, 373.695 249.157, 375 250 M 120 254.443 C 120 255.237, 119.015 256.577, 117.810 257.420 C 116.606 258.264, 115.904 259.237, 116.250 259.583 C 117.007 260.340, 122 255.531, 122 254.045 C 122 253.470, 121.550 253, 121 253 C 120.450 253, 120 253.649, 120 254.443 M 386 253.393 C 386 253.609, 386.698 254.054, 387.552 254.382 C 388.442 254.723, 388.843 254.555, 388.493 253.989 C 387.906 253.038, 386 252.583, 386 253.393 M 373.790 255.190 C 375.328 256.728, 378 257.118, 378 255.805 C 378 255.244, 377.325 255.045, 376.500 255.362 C 375.675 255.678, 375 255.501, 375 254.969 C 375 254.436, 374.460 254, 373.800 254 C 372.872 254, 372.870 254.270, 373.790 255.190 M 296.607 258.095 C 293.991 260.152, 290.980 265.163, 289.513 269.902 L 288.768 272.305 300.634 271.729 C 308.898 271.328, 314.625 270.469, 319.500 268.899 L 326.500 266.646 322.500 265.783 C 320.300 265.308, 316.611 264.563, 314.303 264.127 C 309.188 263.160, 307.018 261.501, 307.512 258.936 C 307.717 257.871, 307.413 257, 306.836 257 C 306.258 257, 306.036 257.652, 306.342 258.449 C 306.703 259.390, 306.418 259.714, 305.526 259.372 C 304.772 259.082, 303.909 258.205, 303.609 257.423 C 302.822 255.372, 299.686 255.673, 296.607 258.095 M 196.446 258.087 C 196.077 258.685, 196.275 259.675, 196.887 260.287 C 198.676 262.076, 198.176 265.036, 195.750 267.019 C 192.340 269.806, 194.644 271.213, 203.558 271.785 L 211.223 272.277 210.474 269.889 C 209.394 266.439, 204.245 259.202, 202.028 258.015 C 199.561 256.695, 197.288 256.724, 196.446 258.087 M 332 259.531 C 332 261.649, 334.705 262.490, 336.560 260.950 C 337.787 259.932, 337.835 259.512, 336.797 258.854 C 334.677 257.509, 332 257.887, 332 259.531 M 357.775 262.250 C 357.533 262.938, 357.665 264.625, 358.068 266 C 358.705 268.175, 358.814 268.013, 358.900 264.750 C 359.002 260.942, 358.571 259.985, 357.775 262.250 M 138.500 265.987 C 137.400 266.392, 135.938 266.512, 135.250 266.255 C 134.563 265.997, 134 266.509, 134 267.393 C 134 269.479, 138.308 269.538, 140.020 267.476 C 141.609 265.561, 141.076 265.039, 138.500 265.987 M 127.583 269.866 C 126.711 271.276, 130.759 274.306, 132.580 273.608 C 133.999 273.063, 133.875 272.689, 131.710 270.986 C 128.885 268.764, 128.353 268.620, 127.583 269.866 M 310.653 278.867 C 309.147 279.460, 309.055 279.792, 310.153 280.664 C 313.797 283.560, 316.002 284.112, 318.088 282.651 L 320.142 281.213 317.848 279.606 C 315.397 277.889, 313.606 277.705, 310.653 278.867 M 187.250 280.662 C 186.563 280.940, 186 281.778, 186 282.524 C 186 284.816, 188.025 285.287, 190.039 283.464 C 192.860 280.912, 191.075 279.119, 187.250 280.662 M 157.500 286 C 156.498 287.107, 155.904 288.237, 156.179 288.512 C 156.454 288.787, 157.498 288.107, 158.500 287 C 159.502 285.893, 160.096 284.763, 159.821 284.488 C 159.546 284.213, 158.502 284.893, 157.500 286 M 151 286.267 C 151 287.764, 153.712 290.624, 154.438 289.893 C 154.652 289.677, 153.967 288.438, 152.914 287.139 C 151.610 285.531, 151 285.253, 151 286.267 M 345.500 304 C 345.160 304.550, 345.584 305, 346.441 305 C 347.298 305, 348 304.550, 348 304 C 348 303.450, 347.577 303, 347.059 303 C 346.541 303, 345.840 303.450, 345.500 304" stroke="none" fill="black" fill-rule="evenodd"/>
</svg>